<svg width="28" height="24" viewBox="0 0 28 24" fill="none" xmlns="http://www.w3.org/2000/svg">
<g id="fi-rr-filter" clip-path="url(#clip0_159_234)">
<path id="Vector" d="M16.2807 24C16.0291 24 15.7842 23.9298 15.5829 23.8L10.9314 20.8C10.7869 20.7069 10.6697 20.5861 10.589 20.4472C10.5082 20.3084 10.4662 20.1552 10.4662 20V14.38L2.30732 6.487C1.72787 5.92488 1.34954 5.23082 1.21778 4.48823C1.08603 3.74565 1.20646 2.98615 1.56461 2.30101C1.92275 1.61588 2.50338 1.03426 3.23669 0.626066C3.96999 0.217873 4.82479 0.000474419 5.69833 0L22.2114 0C23.0849 0.000881051 23.9395 0.218639 24.6725 0.627107C25.4055 1.03557 25.9858 1.61737 26.3435 2.30259C26.7013 2.9878 26.8214 3.74727 26.6893 4.48975C26.5572 5.23222 26.1786 5.9261 25.599 6.488L17.4436 14.38V23C17.4436 23.2652 17.3211 23.5196 17.103 23.7071C16.8849 23.8946 16.5891 24 16.2807 24V24ZM12.792 19.5L15.1178 21V14C15.118 13.7552 15.2227 13.5189 15.412 13.336L23.8639 5.159C24.1458 4.88508 24.3297 4.54704 24.3936 4.18545C24.4574 3.82387 24.3986 3.4541 24.2242 3.12056C24.0497 2.78701 23.767 2.50386 23.4099 2.30509C23.0529 2.10632 22.6368 2.00038 22.2114 2H5.69833C5.27323 2.00055 4.85735 2.10655 4.50055 2.30527C4.14375 2.50399 3.86119 2.78699 3.68676 3.12035C3.51232 3.45371 3.45342 3.82326 3.51711 4.18468C3.58081 4.5461 3.76439 4.88405 4.04585 5.158L12.4989 13.336C12.6878 13.519 12.7921 13.7553 12.792 14V19.5Z" fill="#232C69"/>
</g>
<defs>
<clipPath id="clip0_159_234">
<rect width="27.9095" height="24" fill="white"/>
</clipPath>
</defs>
</svg>
