<svg width="26" height="25" viewBox="0 0 26 25" fill="none" xmlns="http://www.w3.org/2000/svg">
<g clip-path="url(#clip0_27_555)">
<path d="M24.5846 9.44677L16.6836 1.54468C15.7057 0.569672 14.3811 0.0221558 13.0002 0.0221558C11.6193 0.0221558 10.2948 0.569672 9.31689 1.54468L1.41585 9.44677C1.12463 9.73612 0.893736 10.0804 0.736562 10.4597C0.579388 10.8389 0.499057 11.2456 0.500226 11.6561V21.8822C0.500226 22.711 0.829466 23.5058 1.41552 24.0919C2.00157 24.6779 2.79642 25.0072 3.62523 25.0072H22.3752C23.204 25.0072 23.9989 24.6779 24.5849 24.0919C25.171 23.5058 25.5002 22.711 25.5002 21.8822V11.6561C25.5014 11.2456 25.4211 10.8389 25.2639 10.4597C25.1067 10.0804 24.8758 9.73612 24.5846 9.44677ZM16.1252 22.9238H9.87523V18.8259C9.87523 17.9971 10.2045 17.2023 10.7905 16.6162C11.3766 16.0302 12.1714 15.7009 13.0002 15.7009C13.829 15.7009 14.6239 16.0302 15.2099 16.6162C15.796 17.2023 16.1252 17.9971 16.1252 18.8259V22.9238ZM23.4169 21.8822C23.4169 22.1584 23.3071 22.4234 23.1118 22.6188C22.9164 22.8141 22.6515 22.9238 22.3752 22.9238H18.2086V18.8259C18.2086 17.4446 17.6598 16.1198 16.6831 15.1431C15.7063 14.1663 14.3816 13.6176 13.0002 13.6176C11.6189 13.6176 10.2941 14.1663 9.31738 15.1431C8.34063 16.1198 7.79189 17.4446 7.79189 18.8259V22.9238H3.62523C3.34896 22.9238 3.08401 22.8141 2.88866 22.6188C2.69331 22.4234 2.58356 22.1584 2.58356 21.8822V11.6561C2.58453 11.3801 2.69417 11.1155 2.88877 10.9197L10.7898 3.02072C11.377 2.43628 12.1718 2.10816 13.0002 2.10816C13.8287 2.10816 14.6235 2.43628 15.2106 3.02072L23.1117 10.9228C23.3055 11.1179 23.4151 11.3812 23.4169 11.6561V21.8822Z" fill="white"/>
</g>
<defs>
<clipPath id="clip0_27_555">
<rect width="25" height="25" fill="white" transform="translate(0.5)"/>
</clipPath>
</defs>
</svg>
